<svg xmlns="http://www.w3.org/2000/svg" xmlns:xlink="http://www.w3.org/1999/xlink" width="308.23" height="70.684" viewBox="0 0 308.23 70.684">
  <defs>
    <linearGradient id="linear-gradient" x1="0.213" y1="0.073" x2="0.817" y2="0.869" gradientUnits="objectBoundingBox">
      <stop offset="0" stop-color="#ecff59"/>
      <stop offset="0.49" stop-color="#58e867"/>
      <stop offset="1" stop-color="#47daff"/>
    </linearGradient>
  </defs>
  <g id="Group_1" data-name="Group 1" transform="translate(-301.186 536.754)">
    <path id="Path_4" data-name="Path 4" d="M813.093,602.437l-1.736-6.477-4.742,4.742-18.423,18.425-5.3,5.3,11.952,3.2,5.3-5.3,14.415-14.415-1.467-5.477Zm-9.063,57.729,1.736,6.478,4.741-4.742,18.425-18.424,5.3-5.3-11.952-3.2-5.3,5.3-14.415,14.415,1.467,5.477Zm23.544-30.488,8.1,2.17-2.17-8.1-1.032-3.855-3.883-1.041-11.952-3.2-8.75,8.75-.923.923-4.376,4.376-5.3,5.3-7.738-2.073-8.1-2.17,2.17,8.1,1.032,3.855,3.883,1.041,11.952,3.2,8.75-8.75.923-.923,4.376-4.376,5.3-5.3,7.738,2.074Z" transform="translate(-480.264 -1132.714)" fill-rule="evenodd" fill="url(#linear-gradient)"/>
    <path id="Path_5" data-name="Path 5" d="M412.29,1162.521a15.072,15.072,0,0,1-5.766-1.045,9.39,9.39,0,0,1-4.074-3.093,8.459,8.459,0,0,1-1.609-4.932h7.606a3.691,3.691,0,0,0,1.129,2.487,3.628,3.628,0,0,0,2.509.856,3.914,3.914,0,0,0,2.506-.732,2.446,2.446,0,0,0,.919-2.026,2.392,2.392,0,0,0-.732-1.8,5.885,5.885,0,0,0-1.8-1.171,29.115,29.115,0,0,0-3.03-1.045,33.072,33.072,0,0,1-4.639-1.755,8.56,8.56,0,0,1-3.093-2.591,7.214,7.214,0,0,1-1.3-4.472,7.69,7.69,0,0,1,2.967-6.416,12.192,12.192,0,0,1,7.732-2.32,12.328,12.328,0,0,1,7.814,2.32,8.3,8.3,0,0,1,3.175,6.457h-7.732a3.024,3.024,0,0,0-1.045-2.235,3.679,3.679,0,0,0-2.465-.814,3.07,3.07,0,0,0-2.089.691,2.486,2.486,0,0,0-.795,1.985,2.461,2.461,0,0,0,1.338,2.215A21.832,21.832,0,0,0,414,1144.8a38.384,38.384,0,0,1,4.617,1.84,8.777,8.777,0,0,1,3.071,2.55,6.821,6.821,0,0,1,1.3,4.3,8.444,8.444,0,0,1-1.275,4.554,8.917,8.917,0,0,1-3.7,3.26,12.664,12.664,0,0,1-5.725,1.212Zm28.085-6.353v6.06h-3.636a8.9,8.9,0,0,1-6.06-1.9q-2.173-1.9-2.174-6.205v-9.278h-2.843v-5.934h2.843v-5.684h7.146v5.684h4.68v5.934h-4.68v9.361a1.958,1.958,0,0,0,.5,1.505,2.448,2.448,0,0,0,1.672.46h2.55Zm2.55-5.643a13.941,13.941,0,0,1,1.357-6.311,10.135,10.135,0,0,1,3.7-4.179,9.652,9.652,0,0,1,5.223-1.462,8.975,8.975,0,0,1,4.326,1,7.392,7.392,0,0,1,2.863,2.632v-3.3h7.145v23.32h-7.145v-3.3a7.724,7.724,0,0,1-2.9,2.632,8.975,8.975,0,0,1-4.326,1,9.488,9.488,0,0,1-5.182-1.483,10.254,10.254,0,0,1-3.7-4.22,14.066,14.066,0,0,1-1.357-6.331Zm17.468.041a5.842,5.842,0,0,0-1.483-4.22,5.021,5.021,0,0,0-7.228-.022,5.772,5.772,0,0,0-1.483,4.2,5.921,5.921,0,0,0,1.483,4.242,4.972,4.972,0,0,0,7.228.022,5.849,5.849,0,0,0,1.483-4.22Zm19.475-8.357a7.352,7.352,0,0,1,2.884-2.632,9,9,0,0,1,4.3-1,9.652,9.652,0,0,1,5.223,1.462,10.135,10.135,0,0,1,3.7,4.179,15.4,15.4,0,0,1,0,12.642,10.255,10.255,0,0,1-3.7,4.22,9.559,9.559,0,0,1-5.223,1.483,9.021,9.021,0,0,1-4.3-.982,7.589,7.589,0,0,1-2.884-2.613v3.26h-7.146V1131.3h7.146v10.907Zm10.2,8.316a5.772,5.772,0,0,0-1.483-4.2,4.9,4.9,0,0,0-3.657-1.525,4.815,4.815,0,0,0-3.614,1.546,6.744,6.744,0,0,0,0,8.44,5,5,0,0,0,7.25-.022,5.867,5.867,0,0,0,1.505-4.242Zm18.179-19.225v30.926H501.1V1131.3Zm27.164,18.891a17.972,17.972,0,0,1-.126,2.089H519.108a4.854,4.854,0,0,0,1.4,3.323,4.275,4.275,0,0,0,3.03,1.149,3.757,3.757,0,0,0,3.72-2.257h7.606a10.442,10.442,0,0,1-2.111,4.137,10.576,10.576,0,0,1-3.825,2.884,12.283,12.283,0,0,1-5.141,1.045,12.529,12.529,0,0,1-6.1-1.462,10.4,10.4,0,0,1-4.179-4.179,12.9,12.9,0,0,1-1.505-6.353,13.062,13.062,0,0,1,1.483-6.353,10.263,10.263,0,0,1,4.159-4.179,13.553,13.553,0,0,1,12.162-.041,10.2,10.2,0,0,1,4.116,4.053,12.313,12.313,0,0,1,1.483,6.144Zm-7.313-1.881a3.676,3.676,0,0,0-1.253-2.926,4.61,4.61,0,0,0-3.134-1.086,4.519,4.519,0,0,0-3.03,1.045,4.637,4.637,0,0,0-1.525,2.967H528.1Zm25.965-15.42a17.051,17.051,0,0,1,8.108,1.84,13.142,13.142,0,0,1,5.371,5.16,16.38,16.38,0,0,1,0,15.316,13.07,13.07,0,0,1-5.391,5.182,17.1,17.1,0,0,1-8.086,1.84H543.07V1132.89h10.992Zm-.461,23.152a8.629,8.629,0,0,0,6.312-2.215,8.384,8.384,0,0,0,2.257-6.268,7.835,7.835,0,0,0-8.568-8.568h-3.386v17.052Zm38.114,1H580.763l-1.755,5.182h-7.48l10.616-29.338h8.275l10.616,29.338h-7.565l-1.755-5.182Zm-1.84-5.516-3.636-10.74-3.594,10.74Zm28.252,10.992a15.309,15.309,0,0,1-7.584-1.922,14.365,14.365,0,0,1-5.475-5.371,15.8,15.8,0,0,1,0-15.483,14.4,14.4,0,0,1,5.475-5.349,15.924,15.924,0,0,1,15.168,0,14.128,14.128,0,0,1,5.434,5.349,16.012,16.012,0,0,1-.022,15.483,14.274,14.274,0,0,1-5.434,5.371,15.2,15.2,0,0,1-7.565,1.922Zm0-6.52a7.2,7.2,0,0,0,5.621-2.341,10.146,10.146,0,0,0,0-12.391,7.232,7.232,0,0,0-5.621-2.32,7.314,7.314,0,0,0-5.662,2.3,10.207,10.207,0,0,0,0,12.432,7.281,7.281,0,0,0,5.662,2.32Z" transform="translate(-23.713 -1648.344)" fill="#fff"/>
  </g>
</svg>
